<svg width="86" height="17" viewBox="0 0 86 17" fill="none" xmlns="http://www.w3.org/2000/svg">
<path fill-rule="evenodd" clip-rule="evenodd" d="M37.3496 0.381541C36.783 0.6326 36.4239 1.20058 36.44 1.82004V1.84004C36.4362 2.24695 36.6025 2.63697 36.8986 2.91604C37.1948 3.19512 37.594 3.33793 38 3.31004C38.6195 3.29768 39.1704 2.91285 39.3952 2.3354C39.62 1.75795 39.4743 1.10193 39.0262 0.67393C38.5781 0.245931 37.9161 0.130483 37.3496 0.381541ZM3.86996 1.07004H0.869965V13.2H3.86996V1.07004ZM9.73996 3.83004C6.89996 3.83004 5.05996 5.62004 5.05996 8.62004C5.05996 11.67 6.85996 13.42 9.73996 13.42C12.62 13.42 14.42 11.62 14.42 8.62004C14.42 5.62004 12.58 3.83004 9.73996 3.83004ZM11.41 8.62004C11.41 6.97004 10.76 6.00004 9.73996 6.00004C8.71996 6.00004 8.07996 7.00004 8.07996 8.62004C8.07996 10.24 8.70996 11.22 9.73996 11.22C10.77 11.22 11.41 10.3 11.41 8.63004V8.62004ZM18.43 13.79H15.55V13.8C15.72 15.46 17.37 16.65 20.02 16.65C22.87 16.65 24.8 15.29 24.8 13.1V4.00004H21.8V5.67004C21.3375 4.56479 20.2371 3.86311 19.04 3.91004C16.74 3.91004 15.36 5.72004 15.36 8.59004C15.36 11.46 16.81 13.13 19 13.13C20.1597 13.193 21.2409 12.5435 21.73 11.49H21.79V13.17C21.79 14.07 21.19 14.69 20.05 14.69C19.3703 14.7814 18.7114 14.4154 18.43 13.79ZM21.8 8.61004C21.8 7.15004 21.13 6.23004 20.07 6.23004C19.01 6.23004 18.36 7.14004 18.36 8.61004C18.36 10.08 19 10.91 20.07 10.91C21.14 10.91 21.8 10.1 21.8 8.62004V8.61004ZM30.61 3.82004C27.77 3.82004 25.93 5.61004 25.93 8.61004V8.62004C25.93 11.67 27.72 13.41 30.61 13.41C33.5 13.41 35.3 11.61 35.3 8.61004C35.3 5.61004 33.45 3.82004 30.61 3.82004ZM32.28 8.61004C32.28 6.96004 31.63 5.99004 30.61 5.99004C29.59 5.99004 29 7.00004 29 8.63004C29 10.26 29.63 11.23 30.65 11.23C31.67 11.23 32.28 10.3 32.28 8.63004V8.61004ZM36.44 4.02004H39.44V13.2H36.44V4.02004ZM46.72 13.32C49 13.32 50.33 11.61 50.33 8.61004L50.37 8.63004C50.37 5.63004 49 3.91004 46.7 3.87004C45.4931 3.81617 44.3818 4.52376 43.92 5.64004H43.86V4.00004H40.86V16.14H43.86V11.62H43.92C44.4042 12.718 45.5224 13.3969 46.72 13.32ZM47.33 8.61004C47.33 7.15004 46.66 6.22004 45.61 6.22004C44.56 6.22004 43.89 7.16004 43.88 8.61004C43.87 10.06 44.56 10.99 45.61 10.99C46.66 10.99 47.33 10.08 47.33 8.63004V8.61004ZM59.55 6.88004C59.48 4.99004 57.97 3.81004 55.48 3.81004V3.83004C53 3.83004 51.39 5.00004 51.37 6.80004C51.37 8.20004 52.31 9.15004 54.1 9.52004L55.83 9.89004C56.55 10.04 56.83 10.14 56.83 10.62C56.83 11.1 56.43 11.39 55.55 11.39C54.67 11.39 54.13 10.99 54.04 10.31H51.15C51.28 12.18 52.95 13.4 55.5 13.4C58.05 13.4 59.78 12.18 59.78 10.28C59.78 8.89004 59 8.15004 57.17 7.76004L55.25 7.37004C54.58 7.23004 54.25 7.08004 54.25 6.61004C54.25 6.14004 54.62 5.82004 55.45 5.82004C56.28 5.82004 56.82 6.23004 56.82 6.88004H59.55ZM69.79 13.18H66.9V11.47H66.84C66.5127 12.6529 65.4054 13.448 64.18 13.38C63.2578 13.4325 62.3581 13.0826 61.7136 12.4208C61.0692 11.7591 60.7432 10.8505 60.82 9.93004V4.00004H63.82V9.24004C63.82 10.33 64.38 10.91 65.31 10.91C65.7512 10.9109 66.1713 10.7213 66.4625 10.3899C66.7537 10.0585 66.8876 9.61745 66.83 9.18004V4.00004H69.83L69.79 13.18ZM74.14 4.00004H71.24L71.19 13.2H74.19V7.79004C74.1442 7.40959 74.2635 7.02775 74.5177 6.74104C74.772 6.45432 75.1368 6.29016 75.52 6.29004C76.34 6.29004 76.79 6.79004 76.79 7.71004V13.2H79.64V7.77004C79.5908 7.39423 79.7067 7.01554 79.9579 6.73173C80.2092 6.44793 80.571 6.28683 80.95 6.29004C81.79 6.29004 82.24 6.75004 82.24 7.75004V13.2H85.24V6.95004C85.3 6.12667 85.0075 5.31654 84.4353 4.72145C83.8631 4.12636 83.0651 3.80232 82.24 3.83004C80.9536 3.77476 79.7932 4.59777 79.42 5.83004H79.36C79.1608 4.60089 78.0512 3.73064 76.81 3.83004C75.5999 3.80767 74.5273 4.60493 74.2 5.77004H74.14V4.00004Z" fill="#696871"/>
</svg>
